{
    "asset" : {
        "generator" : "Khronos glTF Blender I/O v3.4.50",
        "version" : "2.0"
    },
    "scene" : 0,
    "scenes" : [
        {
            "name" : "Scene",
            "nodes" : [
                0,
                1
            ]
        }
    ],
    "nodes" : [
        {
            "mesh" : 0,
            "name" : "\u7acb\u65b9\u4f53",
            "rotation" : [
                0,
                0,
                0.7071068286895752,
                0.7071068286895752
            ],
            "translation" : [
                -3.9830946922302246,
                1.195326328277588,
                -1
            ]
        },
        {
            "mesh" : 1,
            "name" : "\u7acb\u65b9\u4f53.001",
            "rotation" : [
                0,
                0,
                0.7071068286895752,
                0.7071068286895752
            ],
            "scale" : [
                0.5230379104614258,
                5.727275848388672,
                0.633536696434021
            ],
            "translation" : [
                0.09417963027954102,
                1.195326328277588,
                -1
            ]
        }
    ],
    "materials" : [
        {
            "doubleSided" : true,
            "name" : "\u9524\u5934",
            "pbrMetallicRoughness" : {
                "baseColorFactor" : [
                    0.800000011920929,
                    0.800000011920929,
                    0.800000011920929,
                    1
                ],
                "roughnessFactor" : 0.19576719403266907
            }
        },
        {
            "doubleSided" : true,
            "name" : "\u624b\u67c4",
            "pbrMetallicRoughness" : {
                "baseColorTexture" : {
                    "index" : 0
                },
                "metallicFactor" : 0,
                "roughnessFactor" : 0.5
            }
        }
    ],
    "meshes" : [
        {
            "name" : "\u7acb\u65b9\u4f53.001",
            "primitives" : [
                {
                    "attributes" : {
                        "POSITION" : 0,
                        "TEXCOORD_0" : 1,
                        "NORMAL" : 2
                    },
                    "indices" : 3,
                    "material" : 0
                }
            ]
        },
        {
            "name" : "\u7acb\u65b9\u4f53.002",
            "primitives" : [
                {
                    "attributes" : {
                        "POSITION" : 4,
                        "TEXCOORD_0" : 5,
                        "NORMAL" : 6
                    },
                    "indices" : 7,
                    "material" : 1
                }
            ]
        }
    ],
    "textures" : [
        {
            "sampler" : 0,
            "source" : 0
        }
    ],
    "images" : [
        {
            "bufferView" : 8,
            "mimeType" : "image/jpeg",
            "name" : "wood-texture-background_107257-62"
        }
    ],
    "accessors" : [
        {
            "bufferView" : 0,
            "componentType" : 5126,
            "count" : 289,
            "max" : [
                1.1193395853042603,
                1.1160149574279785,
                4.097050189971924
            ],
            "min" : [
                -1.1160149574279785,
                -1.6027824878692627,
                -4.250606536865234
            ],
            "type" : "VEC3"
        },
        {
            "bufferView" : 1,
            "componentType" : 5126,
            "count" : 289,
            "type" : "VEC2"
        },
        {
            "bufferView" : 2,
            "componentType" : 5126,
            "count" : 289,
            "type" : "VEC3"
        },
        {
            "bufferView" : 3,
            "componentType" : 5123,
            "count" : 1530,
            "type" : "SCALAR"
        },
        {
            "bufferView" : 4,
            "componentType" : 5126,
            "count" : 144,
            "max" : [
                1.4597426652908325,
                0.9469224214553833,
                1.4597426652908325
            ],
            "min" : [
                -1.4597426652908325,
                -1.526193380355835,
                -1.4597426652908325
            ],
            "type" : "VEC3"
        },
        {
            "bufferView" : 5,
            "componentType" : 5126,
            "count" : 144,
            "type" : "VEC2"
        },
        {
            "bufferView" : 6,
            "componentType" : 5126,
            "count" : 144,
            "type" : "VEC3"
        },
        {
            "bufferView" : 7,
            "componentType" : 5123,
            "count" : 228,
            "type" : "SCALAR"
        }
    ],
    "bufferViews" : [
        {
            "buffer" : 0,
            "byteLength" : 3468,
            "byteOffset" : 0,
            "target" : 34962
        },
        {
            "buffer" : 0,
            "byteLength" : 2312,
            "byteOffset" : 3468,
            "target" : 34962
        },
        {
            "buffer" : 0,
            "byteLength" : 3468,
            "byteOffset" : 5780,
            "target" : 34962
        },
        {
            "buffer" : 0,
            "byteLength" : 3060,
            "byteOffset" : 9248,
            "target" : 34963
        },
        {
            "buffer" : 0,
            "byteLength" : 1728,
            "byteOffset" : 12308,
            "target" : 34962
        },
        {
            "buffer" : 0,
            "byteLength" : 1152,
            "byteOffset" : 14036,
            "target" : 34962
        },
        {
            "buffer" : 0,
            "byteLength" : 1728,
            "byteOffset" : 15188,
            "target" : 34962
        },
        {
            "buffer" : 0,
            "byteLength" : 456,
            "byteOffset" : 16916,
            "target" : 34963
        },
        {
            "buffer" : 0,
            "byteLength" : 100510,
            "byteOffset" : 17372
        }
    ],
    "samplers" : [
        {
            "magFilter" : 9729,
            "minFilter" : 9987
        }
    ],
    "buffers" : [
        {
            "byteLength" : 117884,
            "uri" : "data:application/octet-stream;base64,"
        }
    ]
}
